<?xml version="1.0" encoding="UTF-8" standalone="no"?>
<svg
   xmlns:dc="http://purl.org/dc/elements/1.1/"
   xmlns:cc="http://creativecommons.org/ns#"
   xmlns:rdf="http://www.w3.org/1999/02/22-rdf-syntax-ns#"
   xmlns:svg="http://www.w3.org/2000/svg"
   xmlns="http://www.w3.org/2000/svg"
   xmlns:sodipodi="http://sodipodi.sourceforge.net/DTD/sodipodi-0.dtd"
   xmlns:inkscape="http://www.inkscape.org/namespaces/inkscape"
   width="40.789501mm"
   height="85.876503mm"
   viewBox="0 0 40.789502 85.876501"
   version="1.1"
   id="svg8"
   inkscape:version="1.0.2 (e86c870879, 2021-01-15)"
   sodipodi:docname="braudmann.svg"
   inkscape:export-filename="/home/tobias/braud_vipps.png"
   inkscape:export-xdpi="500"
   inkscape:export-ydpi="500">
  <defs
     id="defs2" />
  <sodipodi:namedview
     id="base"
     pagecolor="#ffffff"
     bordercolor="#666666"
     borderopacity="1.0"
     inkscape:pageopacity="1"
     inkscape:pageshadow="2"
     inkscape:zoom="0.74165539"
     inkscape:cx="41.116594"
     inkscape:cy="211.41941"
     inkscape:document-units="mm"
     inkscape:current-layer="layer1"
     inkscape:document-rotation="0"
     showgrid="false"
     inkscape:window-width="1598"
     inkscape:window-height="858"
     inkscape:window-x="0"
     inkscape:window-y="20"
     inkscape:window-maximized="1"
     showguides="false"
     fit-margin-top="0"
     fit-margin-left="0"
     fit-margin-right="0"
     fit-margin-bottom="0" />
  <metadata
     id="metadata5">
    <rdf:RDF>
      <cc:Work
         rdf:about="">
        <dc:format>image/svg+xml</dc:format>
        <dc:type
           rdf:resource="http://purl.org/dc/dcmitype/StillImage" />
        <dc:title></dc:title>
      </cc:Work>
    </rdf:RDF>
  </metadata>
  <g
     inkscape:label="Lag 1"
     inkscape:groupmode="layer"
     id="layer1"
     transform="translate(-86.793162,-15.233565)">
    <g
       id="g41"
       transform="translate(2.3804917,-14.919569)"
       style="fill:#000000">
      <path
         style="fill:#000000;stroke-width:0.0965092"
         d="m 99.840466,115.97426 c -0.30788,-0.11255 -0.588829,-0.47132 -0.735713,-0.93953 -0.124355,-0.39636 -0.167746,-1.28713 -0.230613,-4.73461 -0.07642,-4.19108 -0.07109,-5.04339 0.05956,-9.50617 0.10396,-3.551182 0.05136,-7.043444 -0.122085,-8.106749 -0.257546,-1.578733 -0.524539,-2.256578 -1.358369,-3.448577 -0.431157,-0.616344 -0.948744,-1.228307 -1.21895,-1.441189 -1.174012,-0.924946 -2.067165,-1.780538 -2.5862,-2.477424 -0.309805,-0.415968 -0.563287,-0.798653 -0.563287,-0.850408 0,-0.05177 -0.148884,-0.406288 -0.330856,-0.787845 -0.892183,-1.870728 -0.929564,-2.000621 -1.168952,-4.06225 -0.123865,-1.066724 -0.334889,-2.417217 -0.468946,-3.001105 -0.612807,-2.669099 -1.112677,-4.749416 -1.194274,-4.970224 -0.04904,-0.132706 -0.188219,-0.751569 -0.309286,-1.375261 -0.121072,-0.623694 -0.24792,-1.133985 -0.281886,-1.133985 -0.03396,0 -0.162031,0.466865 -0.28459,1.037477 -0.122555,0.570612 -0.309407,1.296444 -0.415224,1.612965 -0.105817,0.316514 -0.215551,0.794239 -0.243852,1.061599 -0.02831,0.26736 -0.136019,0.768406 -0.239374,1.113425 -0.103358,0.345018 -0.251644,1.126744 -0.329524,1.737169 -0.07788,0.610418 -0.203798,1.435571 -0.279814,1.833677 -0.168683,0.883378 -0.302244,1.846811 -0.441516,3.184804 -0.05801,0.557343 -0.207589,1.708216 -0.332391,2.557497 -0.124803,0.849281 -0.255514,1.804724 -0.290472,2.123205 -0.03494,0.318481 -0.168673,1.205652 -0.297145,1.971502 -0.155828,0.928925 -0.235642,1.796331 -0.239763,2.605748 -0.01156,2.271986 -0.127236,3.381989 -0.418748,4.018735 -0.436541,0.953524 -0.943265,1.308581 -1.081505,0.757794 -0.100065,-0.398687 0.13538,-5.523005 0.285662,-6.217225 0.07469,-0.345025 0.209766,-1.061606 0.300171,-1.592406 0.177036,-1.039424 0.558155,-2.953777 1.018318,-5.114988 0.158222,-0.743124 0.316396,-1.568276 0.351496,-1.833683 0.03509,-0.265399 0.116943,-0.569401 0.181873,-0.675563 0.06493,-0.106156 0.170431,-0.86617 0.234439,-1.688913 0.06401,-0.822743 0.221748,-1.973616 0.350537,-2.557497 0.449599,-2.038339 0.714342,-3.586947 0.989929,-5.790558 0.260296,-2.081329 0.302786,-2.279879 0.681531,-3.184804 0.784649,-1.874738 0.904899,-2.128433 1.25799,-2.654011 0.196131,-0.291937 0.519771,-0.842188 0.719193,-1.222771 0.199425,-0.380584 0.597899,-0.951997 0.885494,-1.269798 0.70288,-0.77671 0.680181,-0.981763 -0.10868,-0.981763 -0.382418,0 -1.318975,-0.329219 -1.732896,-0.609156 -0.481542,-0.325664 -0.991589,-0.91442 -1.114312,-1.286271 -0.07549,-0.228746 -0.09943,-0.724749 -0.0687,-1.423416 0.04381,-0.996012 0.07501,-1.134145 0.43828,-1.940916 0.423256,-0.939964 0.92468,-1.602342 1.398474,-1.847348 0.369063,-0.190849 1.939456,-0.136243 2.785355,0.09685 0.738044,0.203374 2.230329,0.854758 2.721861,1.18809 0.220921,0.149813 1.139969,1.01684 2.042333,1.926718 1.182537,1.19239 1.721497,1.670717 1.930187,1.713028 0.159244,0.03229 0.749814,0.0867 1.312384,0.120905 1.24239,0.07555 2.02756,-0.05459 2.89028,-0.479077 0.51588,-0.253823 0.74849,-0.457524 1.35494,-1.18656 0.7066,-0.849421 0.73685,-0.906661 0.86696,-1.640655 0.0969,-0.546317 0.13184,-1.548844 0.12424,-3.559301 -0.0102,-2.713127 -0.0185,-2.828176 -0.26868,-3.759811 -0.38276,-1.425217 -0.67999,-1.915723 -1.6282,-2.686942 -0.67321,-0.547541 -1.10771,-0.773302 -2.62523,-1.364051 -0.63696,-0.24796 -1.49485,-0.623635 -1.90643,-0.834833 -0.411574,-0.211197 -1.215019,-0.553557 -1.785427,-0.760801 -0.570401,-0.207238 -1.384533,-0.514609 -1.809176,-0.683047 -1.389788,-0.551263 -2.100369,-0.770245 -2.210599,-0.681247 -0.194519,0.157059 -2.814467,1.251295 -3.271598,1.366402 -0.261219,0.06577 -0.857521,0.09739 -1.414771,0.07501 -1.364931,-0.05484 -1.447764,-0.128228 -2.159855,-1.914007 -0.506673,-1.270637 -1.300725,-3.01406 -1.494496,-3.281318 -0.09621,-0.1327 -0.317633,-0.314066 -0.492047,-0.403039 -0.409537,-0.208904 -0.777481,-0.553307 -0.883028,-0.82653 -0.118087,-0.305674 0.03767,-1.025323 0.308686,-1.426261 0.422128,-0.624494 1.50685,-1.327768 2.811012,-1.82251 0.331873,-0.125902 1.059415,-0.433574 1.616756,-0.683719 0.557338,-0.250145 1.295637,-0.554685 1.640656,-0.676749 0.345022,-0.122065 0.788775,-0.291438 0.98612,-0.376374 0.230678,-0.09928 0.627015,-0.152991 1.109858,-0.15039 0.847793,0.0045 1.1976,0.144771 1.617278,0.6482 0.234832,0.281706 0.256145,0.367174 0.204572,0.820334 -0.199556,1.753373 -0.194213,1.858119 0.130219,2.551418 0.167749,0.358473 0.403417,0.783167 0.523696,0.943763 0.12028,0.160602 0.360799,0.543018 0.534468,0.849812 0.278691,0.492294 0.315017,0.639352 0.309272,1.252019 -0.0051,0.541858 -0.04998,0.753024 -0.204637,0.962209 l -0.198141,0.268001 h 0.280369 c 0.154202,0 1.14351,0.329604 2.198472,0.732457 1.863671,0.711661 2.575701,0.952266 4.282591,1.447123 0.73186,0.212177 1.30356,0.429858 2.28475,0.86993 0.38882,0.174389 1.16065,0.78302 1.66837,1.315588 0.50272,0.527327 1.19141,1.929768 1.43459,2.921352 0.23282,0.949299 0.47194,3.113412 0.59186,5.356272 0.0496,0.9289 0.16238,2.315226 0.25049,3.080724 0.12639,1.098176 -0.14513,1.550632 -0.23285,1.843408 -0.11646,0.388727 -0.3965,1.064169 -1.17517,1.879775 -0.47672,0.499309 -1.18058,1.54641 -1.49209,2.219712 -0.42838,0.925869 -0.22489,3.160349 0.38695,4.248902 0.52612,0.936075 0.81857,1.590086 1.07773,2.410241 0.35262,1.115853 0.89432,2.390975 1.76297,4.149902 0.41944,0.84928 1.09609,2.234832 1.50369,3.079013 0.80839,1.674241 1.19381,2.179304 2.21696,2.905245 0.67687,0.480249 1.57651,0.94573 2.1232,1.098561 0.3767,0.10531 1.7829,0.324734 2.84703,0.444248 1.96815,0.221052 5.53158,1.509673 6.35393,2.297729 0.55997,0.536611 0.71469,0.951913 0.64933,1.743039 -0.0313,0.378859 -0.0812,1.666001 -0.1108,2.8603 -0.0435,1.751412 -0.0217,2.404821 0.11249,3.377825 0.24099,1.747382 0.28382,4.318994 0.096,5.762897 -0.28066,2.157268 -0.68969,3.496409 -1.18757,3.888049 -0.58003,0.456247 -0.80335,-0.12159 -1.61447,-4.177559 -0.4818,-2.409237 -0.77459,-3.691081 -1.26214,-5.525763 -0.18398,-0.692312 -0.4413,-1.814725 -0.57183,-2.494261 -0.25326,-1.318542 -0.79993,-2.897711 -1.18175,-3.413698 -0.27889,-0.376892 -0.87193,-0.698808 -1.28738,-0.698808 -0.53449,0 -2.26722,0.80615 -4.18507,1.947092 -0.59989,0.356884 -1.61555,1.419816 -2.05873,2.15456 -0.80029,1.326794 -1.1697,1.700682 -2.64823,2.680299 -0.76011,0.503615 -1.8163,1.164347 -2.3471,1.468297 -2.9819,1.707505 -3.90122,3.16468 -4.38466,6.949957 -0.0542,0.424637 -0.16279,1.228071 -0.24125,1.785408 -0.0785,0.557337 -0.1891,1.914234 -0.24587,3.015314 -0.0568,1.10109 -0.14494,2.22197 -0.19593,2.49085 -0.051,0.26889 -0.13652,1.17032 -0.19007,2.00318 -0.0536,0.83285 -0.14167,1.79656 -0.19588,2.14158 -0.12373,0.78779 -0.3595,2.88906 -0.48728,4.34292 -0.21732,2.4725 -0.25716,2.73355 -0.43728,2.86525 -0.1824,0.13337 -0.28553,0.14489 -0.522194,0.0584 z m 0.323964,-1.20785 c 0.034,-0.33325 0.12737,-1.32251 0.20759,-2.19832 0.0802,-0.87583 0.2073,-2.09185 0.2824,-2.70227 0.0751,-0.61042 0.16409,-1.479 0.19777,-1.93018 0.0337,-0.45119 0.0775,-0.99405 0.0973,-1.20637 0.0199,-0.21232 0.0643,-0.73347 0.0986,-1.15811 0.0344,-0.42464 0.10447,-0.96481 0.15572,-1.20036 0.0512,-0.23556 0.13356,-1.32129 0.18294,-2.41273 0.0494,-1.09145 0.15816,-2.353597 0.24175,-2.804774 0.0836,-0.451177 0.19032,-1.364061 0.2372,-2.028638 0.0707,-1.003344 0.14988,-1.404451 0.46644,-2.364468 0.20967,-0.635884 0.48829,-1.39501 0.61913,-1.686954 0.47252,-1.054212 1.6359,-2.074134 3.8576,-3.3819 0.65261,-0.384151 1.46009,-0.887818 1.79437,-1.119261 0.3343,-0.231443 0.63248,-0.420812 0.66263,-0.420812 0.0302,0 0.26608,-0.155054 0.52425,-0.34457 0.33473,-0.245731 0.70625,-0.701211 1.29506,-1.587773 0.95529,-1.438415 1.68849,-2.158257 2.91479,-2.861691 0.44654,-0.256142 1.09077,-0.629652 1.43162,-0.830022 0.34085,-0.200363 0.95382,-0.498073 1.36215,-0.661577 0.61721,-0.24714 0.84125,-0.290662 1.32833,-0.258032 0.63921,0.0428 1.27487,0.366405 1.55268,0.790376 0.36651,0.559374 0.84394,1.986212 1.15407,3.449089 0.18427,0.869206 0.4637,2.036391 0.62097,2.593728 0.15725,0.557344 0.35852,1.404215 0.44728,1.881934 0.0888,0.477724 0.32858,1.563452 0.53295,2.412733 0.20437,0.84928 0.44115,1.956725 0.52618,2.460982 0.16318,0.967794 0.59354,2.478085 0.7302,2.562535 0.26141,0.161577 0.76155,-1.735191 0.95193,-3.610229 0.14158,-1.394503 0.12124,-3.533232 -0.0456,-4.791113 -0.20847,-1.571929 -0.29815,-5.351371 -0.14609,-6.157277 0.26822,-1.421469 -0.0948,-2.020605 -1.68527,-2.781823 -2.23701,-1.070633 -3.68442,-1.459763 -6.41787,-1.725438 -1.5119,-0.146949 -2.56269,-0.591793 -4.02397,-1.703507 -0.75264,-0.572592 -1.12366,-1.065322 -1.76451,-2.343302 -0.2245,-0.447708 -0.51868,-0.989054 -0.65374,-1.203006 -0.13507,-0.213952 -0.37259,-0.737948 -0.52786,-1.16443 -0.15525,-0.426495 -0.49485,-1.188014 -0.75464,-1.692276 -0.50026,-0.970986 -1.13647,-2.536149 -1.34715,-3.31423 -0.33556,-0.620022 -0.60267,-1.30888 -0.90545,-1.910149 -0.87535,-1.730135 -1.18517,-2.98366 -1.04634,-4.233532 0.14682,-1.321848 0.40391,-1.774099 2.42187,-4.260307 l 0.60272,-1.031775 0.1547,-0.930712 c 0.0873,-0.525444 -0.0967,-1.510019 -0.15317,-2.173518 -0.0565,-0.663506 -0.14868,-1.879518 -0.20483,-2.702261 -0.35567,-5.211368 -1.14681,-6.956975 -3.71653,-8.200389 -0.5308,-0.256841 -1.31253,-0.560727 -1.73717,-0.675308 -1.53849,-0.415116 -1.83292,-0.517633 -4.558677,-1.587241 -0.968036,-0.379872 -1.509693,-0.540135 -1.833676,-0.542563 -0.252892,-0.0019 -0.720386,-0.06635 -1.038865,-0.143252 -0.318482,-0.0769 -0.875386,-0.140497 -1.23757,-0.14133 -0.571718,-0.0013 -0.654292,0.02044 -0.626494,0.164773 0.03589,0.186428 0.582485,0.523336 1.236754,0.762333 0.23886,0.08725 1.259446,0.479352 2.26797,0.871326 1.00852,0.391981 2.072535,0.804798 2.364478,0.91738 0.291936,0.112576 0.75486,0.329892 1.02871,0.482921 0.27386,0.153029 1.16416,0.540974 1.97844,0.862094 2.82174,1.112765 3.81509,2.00018 4.38405,3.916544 0.42049,1.416273 0.48945,2.295211 0.41136,5.242896 -0.0824,3.111777 -0.13637,3.393739 -0.81333,4.251041 -1.10877,1.404138 -1.58042,1.738797 -2.92998,2.078965 -0.82492,0.20793 -3.15129,0.155605 -3.699394,-0.08321 -0.2229,-0.09712 -1.014625,-0.811333 -2.042701,-1.84273 -0.923305,-0.926273 -1.873861,-1.798496 -2.112348,-1.938263 -1.117693,-0.65501 -2.989048,-1.211572 -4.070316,-1.210559 -1.166968,0.0013 -2.083729,1.463863 -2.20732,3.521967 -0.0658,1.095703 0.09039,1.500447 0.771298,1.998731 0.596324,0.436388 1.029425,0.615909 1.686682,0.699122 0.286777,0.03633 0.66256,0.109808 0.835069,0.163338 0.280376,0.08699 0.313653,0.135487 0.313653,0.457114 0,0.37613 -0.148866,0.623129 -0.786873,1.305548 -0.193922,0.207418 -0.515523,0.685072 -0.714671,1.06144 -0.199148,0.37638 -0.522313,0.923177 -0.718149,1.215121 -0.694732,1.035677 -1.695866,3.678892 -1.772841,4.680702 -0.04337,0.564494 -0.0382,0.600994 0.03145,0.222 0.102482,-0.557741 0.160272,-0.656292 0.384854,-0.656292 0.287281,0 0.458521,0.38476 0.734549,1.650433 0.14353,0.658124 0.560081,2.456036 0.925672,3.99536 0.365588,1.539324 0.729618,3.081057 0.808957,3.426082 0.07934,0.345019 0.228576,1.456297 0.331647,2.469505 0.19361,1.903269 0.342903,2.497497 0.822252,3.272797 0.131273,0.212318 0.307459,0.538039 0.391525,0.72382 0.778138,1.719615 1.260916,2.293277 3.316737,3.941121 0.566672,0.454205 1.690997,1.992856 2.094687,2.866598 0.750967,1.625376 0.852987,2.887735 0.775697,9.597938 -0.076,6.597307 -0.0783,13.268827 -0.005,14.042997 0.0666,0.70226 0.20666,1.19811 0.40146,1.42124 0.214074,0.24521 0.278494,0.14764 0.347114,-0.52579 z M 85.261736,93.16975 c 0.05608,-0.238862 0.14327,-1.476594 0.193763,-2.750518 0.06192,-1.562184 0.157164,-2.677524 0.292574,-3.426082 0.240913,-1.331779 0.496522,-3.108517 0.453407,-3.151629 -0.05192,-0.05196 -0.616568,2.534067 -0.877801,4.020214 -0.259778,1.477881 -0.440458,3.651316 -0.437248,5.259765 0.0018,0.879816 0.01394,0.943766 0.137638,0.723816 0.07464,-0.1327 0.181592,-0.436704 0.237667,-0.675566 z m 5.683545,-52.023116 c 0.229882,-0.05298 0.955476,-0.34901 1.612434,-0.657771 l 1.194463,-0.561387 -0.376194,-0.280834 c -0.568865,-0.424656 -0.73958,-0.928495 -0.422151,-1.245926 0.131569,-0.131565 0.345318,-0.154534 1.256053,-0.134974 1.094706,0.02351 1.098254,0.02287 1.39421,-0.258506 0.278508,-0.264778 0.294375,-0.31761 0.258654,-0.86114 -0.03155,-0.479967 -0.11027,-0.694656 -0.460136,-1.25462 -0.232148,-0.371562 -0.597039,-1.001285 -0.810868,-1.399384 -0.417902,-0.778043 -0.423413,-0.825729 -0.327627,-2.83582 0.02488,-0.522407 0.0057,-0.583836 -0.23948,-0.767638 -0.620624,-0.465199 -2.142269,-0.120751 -4.800203,1.086593 -0.610421,0.277278 -1.330789,0.583086 -1.600817,0.679568 -1.513293,0.540724 -2.60725,1.553778 -2.531078,2.343878 0.02583,0.268033 0.104023,0.353284 0.536518,0.58506 0.665453,0.356615 0.909729,0.697443 1.367042,1.907382 0.20915,0.553364 0.600654,1.470917 0.870011,2.039005 0.26936,0.568088 0.48974,1.070812 0.48974,1.11716 0,0.195539 0.461294,0.493127 0.82033,0.529217 0.751649,0.07555 1.356271,0.06534 1.769099,-0.02986 z"
         id="path76"
         sodipodi:nodetypes="ssssssssssssssssssssssssssssssssssssssssssssssssssssssscssssssssssssssssssssssscscsssssssssssssssssssssssssssssssssssssssssssssscsssssscssssssssssssssscssssssssssccsscsscsssssssssssssssssscsssssssssssssssssssssssssssssscsssscssssssscssscsssssss" />
    </g>
  </g>
</svg>
