<?xml version="1.0" encoding="UTF-8" standalone="no"?>
<svg
   xmlns:dc="http://purl.org/dc/elements/1.1/"
   xmlns:cc="http://creativecommons.org/ns#"
   xmlns:rdf="http://www.w3.org/1999/02/22-rdf-syntax-ns#"
   xmlns:svg="http://www.w3.org/2000/svg"
   xmlns="http://www.w3.org/2000/svg"
   xmlns:sodipodi="http://sodipodi.sourceforge.net/DTD/sodipodi-0.dtd"
   xmlns:inkscape="http://www.inkscape.org/namespaces/inkscape"
   width="292.53232"
   height="59.56675"
   viewBox="0 0 292.53233 59.56675"
   version="1.1"
   id="svg917"
   sodipodi:docname="logo_1.svg"
   inkscape:version="1.0.2 (e86c870879, 2021-01-15)">
  <metadata
     id="metadata921">
    <rdf:RDF>
      <cc:Work
         rdf:about="">
        <dc:format>image/svg+xml</dc:format>
        <dc:type
           rdf:resource="http://purl.org/dc/dcmitype/StillImage" />
        <dc:title>logo</dc:title>
      </cc:Work>
    </rdf:RDF>
  </metadata>
  <sodipodi:namedview
     pagecolor="#ffffff"
     bordercolor="#666666"
     borderopacity="1"
     objecttolerance="10"
     gridtolerance="10"
     guidetolerance="10"
     inkscape:pageopacity="0"
     inkscape:pageshadow="2"
     inkscape:window-width="1598"
     inkscape:window-height="858"
     id="namedview919"
     showgrid="false"
     fit-margin-left="0.6"
     fit-margin-top="0.6"
     fit-margin-bottom="0.6"
     fit-margin-right="1"
     inkscape:zoom="2.2101802"
     inkscape:cx="154.14925"
     inkscape:cy="12.274501"
     inkscape:window-x="0"
     inkscape:window-y="20"
     inkscape:window-maximized="1"
     inkscape:current-layer="g41"
     inkscape:document-rotation="0" />
  <!-- Generator: Sketch 51.3 (57544) - http://www.bohemiancoding.com/sketch -->
  <title
     id="title907">logo</title>
  <desc
     id="desc909">Created with Sketch.</desc>
  <defs
     id="defs911" />
  <g
     id="g41"
     transform="matrix(0.85151806,0,0,0.85151806,-38.187071,-17.225981)"
     style="fill:#000000">
    <path
       style="fill:#000000;stroke-width:0.077031"
       d="m 57.864546,89.434541 c -0.245742,-0.0898 -0.469988,-0.3762 -0.587226,-0.74991 -0.09925,-0.31636 -0.133881,-1.02735 -0.184084,-3.77904 -0.06099,-3.345206 -0.05674,-4.025497 0.04753,-7.58757 0.08297,-2.834461 0.041,-5.621891 -0.09744,-6.470595 -0.205569,-1.260102 -0.418666,-1.801141 -1.084209,-2.752562 -0.344139,-0.491949 -0.757261,-0.980403 -0.972933,-1.15032 -0.937067,-0.738268 -1.649956,-1.421178 -2.064238,-1.977413 -0.247278,-0.332015 -0.449599,-0.637465 -0.449599,-0.678774 0,-0.04132 -0.118842,-0.324289 -0.26408,-0.628836 -0.712118,-1.493165 -0.741955,-1.596844 -0.93303,-3.242382 -0.09887,-0.851429 -0.267297,-1.929359 -0.374297,-2.395404 -0.489127,-2.130403 -0.888112,-3.790857 -0.953241,-3.967101 -0.03914,-0.105938 -0.150245,-0.599881 -0.246863,-1.097696 -0.09663,-0.497816 -0.197885,-0.905117 -0.224992,-0.905117 -0.02711,0 -0.129331,0.37264 -0.227152,0.828086 -0.09782,0.455449 -0.246962,1.03479 -0.331422,1.287425 -0.08447,0.252636 -0.172036,0.633942 -0.194616,0.847341 -0.02258,0.213394 -0.108567,0.61332 -0.19107,0.888708 -0.0825,0.275382 -0.200876,0.899338 -0.263018,1.386561 -0.06217,0.48722 -0.162679,1.145834 -0.223341,1.463595 -0.134629,0.705089 -0.24124,1.474075 -0.352404,2.542026 -0.04629,0.444855 -0.165691,1.363451 -0.265309,2.041326 -0.09962,0.677873 -0.203951,1.440482 -0.231845,1.694686 -0.0279,0.254204 -0.134629,0.96232 -0.237173,1.5736 -0.124375,0.741443 -0.188079,1.433785 -0.191369,2.07984 -0.0094,1.81344 -0.101559,2.699413 -0.334233,3.207649 -0.348436,0.761075 -0.752889,1.044474 -0.863229,0.604851 -0.07985,-0.318222 0.108054,-4.408316 0.228007,-4.962425 0.05962,-0.275391 0.167442,-0.847347 0.239591,-1.271018 0.141316,-0.82964 0.445502,-2.357626 0.812795,-4.082647 0.126276,-0.593141 0.252537,-1.251755 0.280553,-1.463599 0.02801,-0.211834 0.09333,-0.454481 0.145161,-0.539214 0.05183,-0.08473 0.136017,-0.691355 0.187117,-1.348047 0.05108,-0.656692 0.176992,-1.57529 0.279786,-2.041326 0.358861,-1.626948 0.570172,-2.863006 0.790137,-4.621873 0.207754,-1.661258 0.241677,-1.819737 0.543979,-2.542026 0.626288,-1.496367 0.722267,-1.698859 1.004095,-2.118359 0.156526,-0.233018 0.41487,-0.672213 0.574041,-0.975986 0.159175,-0.303769 0.477228,-0.759857 0.706777,-1.013518 0.561022,-0.619949 0.542904,-0.783619 -0.08673,-0.783619 -0.305235,0 -1.05277,-0.262773 -1.38315,-0.486209 -0.384355,-0.259938 -0.791462,-0.729869 -0.889417,-1.02667 -0.06027,-0.182589 -0.07936,-0.578475 -0.05484,-1.136133 0.03495,-0.794988 0.05986,-0.905245 0.349821,-1.549187 0.337834,-0.750254 0.738055,-1.278948 1.116225,-1.474506 0.294578,-0.152339 1.548023,-0.108759 2.223198,0.07729 0.589088,0.162315 1.78019,0.682246 2.172518,0.948304 0.17633,0.119568 0.909891,0.811615 1.630135,1.537854 0.943869,0.951734 1.374054,1.333524 1.540625,1.367294 0.127109,0.02578 0.598482,0.0692 1.047511,0.0965 0.991641,0.06031 1.618343,-0.04358 2.306945,-0.382385 0.411761,-0.202606 0.597424,-0.365184 1.081478,-0.947082 0.563987,-0.677986 0.588133,-0.723673 0.691985,-1.309527 0.07733,-0.436058 0.105234,-1.236248 0.09917,-2.84094 -0.0081,-2.165546 -0.01474,-2.257376 -0.214454,-3.000983 C 62.687213,33.46991 62.449971,33.0784 61.693135,32.462832 61.155796,32.0258 60.80899,31.845604 59.597747,31.374082 c -0.508405,-0.197927 -1.19315,-0.497769 -1.521663,-0.666341 -0.328508,-0.168575 -0.969797,-0.441834 -1.425081,-0.607252 -0.455278,-0.165413 -1.105099,-0.410746 -1.444037,-0.54519 -1.109292,-0.440003 -1.676458,-0.61479 -1.764441,-0.543752 -0.155245,0.125358 -2.246434,0.99875 -2.611304,1.090626 -0.208502,0.05249 -0.684451,0.07774 -1.129231,0.05986 -1.089453,-0.04377 -1.155569,-0.10235 -1.72394,-1.527711 -0.404412,-1.014189 -1.038205,-2.405744 -1.192868,-2.619061 -0.0768,-0.105917 -0.253527,-0.250679 -0.392738,-0.321695 -0.326883,-0.166738 -0.620565,-0.441636 -0.704812,-0.659715 -0.09425,-0.243981 0.03006,-0.818385 0.246385,-1.138404 0.336934,-0.498454 1.20273,-1.05979 2.243678,-1.454679 0.264892,-0.100491 0.845595,-0.346069 1.29045,-0.545727 0.444855,-0.199657 1.034145,-0.442733 1.30953,-0.540163 0.275387,-0.09744 0.62958,-0.232618 0.787095,-0.300414 0.184127,-0.07924 0.500466,-0.12211 0.885858,-0.120038 0.676687,0.0034 0.955894,0.115552 1.290868,0.517376 0.187439,0.224851 0.204443,0.293069 0.163277,0.654769 -0.159282,1.399497 -0.155009,1.4831 0.103952,2.036475 0.133881,0.286124 0.321997,0.625102 0.418002,0.753286 0.09601,0.128199 0.287978,0.433423 0.426598,0.678296 0.222443,0.392938 0.251437,0.510315 0.246853,0.999329 -0.0041,0.432498 -0.03988,0.601045 -0.163341,0.768011 l -0.15815,0.213909 h 0.223783 c 0.123072,0 0.912722,0.263082 1.754762,0.584631 1.487534,0.568029 2.055858,0.760073 3.418254,1.155054 0.584149,0.169343 1.040465,0.343101 1.823628,0.694354 0.310343,0.139201 0.926398,0.624987 1.331646,1.050068 0.401259,0.420901 0.950953,1.54029 1.145054,2.331747 0.185815,0.757704 0.37669,2.485043 0.472405,4.275235 0.03961,0.741424 0.129608,1.847952 0.199935,2.458952 0.100876,0.876536 -0.11583,1.237673 -0.185857,1.47136 -0.09297,0.310273 -0.316479,0.849392 -0.93799,1.500386 -0.380506,0.398538 -0.94231,1.234304 -1.190948,1.771716 -0.341922,0.739005 -0.179491,2.522508 0.308852,3.391362 0.419937,0.74715 0.653361,1.269166 0.860216,1.923789 0.281452,0.890646 0.713824,1.908415 1.407156,3.312345 0.334788,0.677871 0.874871,1.783782 1.200206,2.457585 0.645237,1.336336 0.952869,1.739462 1.76952,2.318891 0.54026,0.383321 1.258329,0.754856 1.694681,0.87684 0.300675,0.08404 1.423065,0.259197 2.272427,0.354588 1.570923,0.176437 4.41516,1.204982 5.071537,1.833987 0.446955,0.428309 0.570446,0.759793 0.518279,1.391247 -0.02499,0.302396 -0.06481,1.32976 -0.08844,2.283018 -0.03471,1.397931 -0.0173,1.919466 0.08979,2.696091 0.192352,1.394714 0.226539,3.447307 0.07663,4.599791 -0.224016,1.721874 -0.550492,2.790742 -0.947887,3.103339 -0.462964,0.364163 -0.641212,-0.09705 -1.288626,-3.334419 -0.384562,-1.922987 -0.618257,-2.946123 -1.007409,-4.410518 -0.146848,-0.552584 -0.352233,-1.448463 -0.45642,-1.990853 -0.202157,-1.052424 -0.638482,-2.312875 -0.943241,-2.724724 -0.222604,-0.300824 -0.695952,-0.55777 -1.027552,-0.55777 -0.426617,0 -1.809635,0.643448 -3.340413,1.554119 -0.478816,0.284853 -1.289489,1.13326 -1.643225,1.719713 -0.63877,1.059012 -0.933623,1.357439 -2.113747,2.139343 -0.6067,0.401971 -1.449721,0.929351 -1.873392,1.171957 -2.380076,1.362885 -3.113852,2.525963 -3.499721,5.547272 -0.04326,0.338934 -0.129929,0.980214 -0.192544,1.425065 -0.06266,0.444852 -0.15095,1.52789 -0.19624,2.406745 -0.04533,0.87886 -0.115701,1.773517 -0.156398,1.988129 -0.0407,0.21462 -0.108951,0.934121 -0.151719,1.598883 -0.04277,0.664756 -0.113074,1.433966 -0.156355,1.709346 -0.09876,0.6288 -0.286945,2.30597 -0.388936,3.4664 -0.173445,1.97349 -0.205254,2.18185 -0.349025,2.28697 -0.145588,0.10645 -0.227903,0.11566 -0.416801,0.0466 z m 0.258579,-0.96408 c 0.02715,-0.26599 0.101666,-1.05559 0.16569,-1.75464 0.064,-0.69906 0.165478,-1.66966 0.225405,-2.15688 0.05994,-0.48722 0.130976,-1.1805 0.157872,-1.54061 0.0269,-0.36013 0.06187,-0.79343 0.07767,-0.9629 0.01602,-0.169471 0.05134,-0.585432 0.0787,-0.92437 0.02745,-0.338935 0.08338,-0.770083 0.12429,-0.958094 0.04087,-0.188015 0.106601,-1.054619 0.146015,-1.925777 0.03944,-0.871166 0.126234,-1.878579 0.19295,-2.238698 0.06674,-0.360117 0.151912,-1.088757 0.189318,-1.619204 0.05642,-0.800842 0.119632,-1.120995 0.372298,-1.887255 0.167357,-0.507547 0.389743,-1.113463 0.494175,-1.346483 0.377154,-0.841444 1.305731,-1.655519 3.079034,-2.699343 0.520896,-0.306619 1.165405,-0.708633 1.432219,-0.893367 0.266829,-0.184725 0.504829,-0.33588 0.528892,-0.33588 0.0241,0 0.21239,-0.123755 0.418444,-0.275026 0.267173,-0.196133 0.56371,-0.559689 1.033683,-1.267319 0.762487,-1.148104 1.347709,-1.722664 2.326509,-2.284124 0.356416,-0.204443 0.870624,-0.502573 1.14268,-0.662502 0.272059,-0.159923 0.761315,-0.397549 1.087231,-0.528055 0.492642,-0.197265 0.671467,-0.231999 1.060239,-0.20596 0.510202,0.03418 1.017569,0.292454 1.23931,0.630857 0.292537,0.446479 0.673609,1.585342 0.921147,2.752972 0.147062,0.693776 0.370115,1.625393 0.495643,2.070244 0.125507,0.444859 0.286161,1.120809 0.357006,1.502111 0.07086,0.381307 0.262264,1.247906 0.425387,1.925779 0.163127,0.677875 0.352114,1.561806 0.419982,1.964292 0.13025,0.772468 0.473748,1.977943 0.582827,2.045347 0.208652,0.128968 0.60785,-1.384983 0.759807,-2.881587 0.112988,-1.113057 0.09677,-2.820135 -0.03638,-3.824141 -0.166391,-1.254673 -0.23797,-4.271324 -0.116594,-4.914576 0.214086,-1.13458 -0.07567,-1.612795 -1.345137,-2.220379 C 74.373914,60.200342 73.218629,59.889749 71.036863,59.677696 69.830104,59.560414 68.99139,59.205341 67.825035,58.318 67.224297,57.860973 66.92816,57.467688 66.416649,56.447639 66.237457,56.090289 66.002655,55.658201 65.894851,55.487432 65.787032,55.316657 65.59746,54.89842 65.473527,54.558013 65.349601,54.217597 65.078553,53.609771 64.871194,53.207285 64.4719,52.432267 63.964095,51.182996 63.795934,50.561952 c -0.267835,-0.494886 -0.481037,-1.044712 -0.722707,-1.52463 -0.69868,-1.380948 -0.945971,-2.38148 -0.835159,-3.379093 0.117197,-1.055065 0.32239,-1.416041 1.933072,-3.400465 l 0.481075,-0.823536 0.123478,-0.742869 c 0.06969,-0.419395 -0.07718,-1.205257 -0.12226,-1.734844 -0.0451,-0.529593 -0.118671,-1.500183 -0.163469,-2.156874 -0.283887,-4.159577 -0.915354,-5.552874 -2.966436,-6.545335 -0.42367,-0.204999 -1.047629,-0.447557 -1.386564,-0.539012 -1.227983,-0.331335 -1.462988,-0.413161 -3.638617,-1.266895 -0.77266,-0.303202 -1.204996,-0.431121 -1.46359,-0.433059 -0.201858,-0.0015 -0.574993,-0.05296 -0.829195,-0.114355 -0.254203,-0.06138 -0.69871,-0.112134 -0.987795,-0.112818 -0.456331,-0.001 -0.52224,0.01645 -0.500052,0.131532 0.02865,0.148814 0.464925,0.417711 0.987145,0.608473 0.190643,0.06964 1.005258,0.382603 1.810232,0.69547 0.804975,0.312868 1.654243,0.642367 1.887265,0.732226 0.233016,0.08985 0.602509,0.263311 0.821088,0.385455 0.21859,0.122132 0.929203,0.431792 1.57914,0.688102 2.252238,0.88818 3.045105,1.596491 3.499234,3.126081 0.335624,1.130432 0.390666,1.831977 0.328335,4.18474 -0.06578,2.48374 -0.108865,2.708794 -0.649178,3.393071 -0.884991,1.120746 -1.26145,1.387861 -2.338632,1.659375 -0.658431,0.165969 -2.515276,0.124183 -2.952758,-0.06642 -0.177932,-0.07753 -0.809847,-0.647583 -1.630432,-1.470817 -0.736957,-0.739328 -1.495665,-1.435513 -1.686019,-1.54707 -0.892113,-0.522815 -2.38578,-0.967046 -3.24882,-0.966238 -0.931444,0.001 -1.663177,1.168416 -1.761825,2.811143 -0.05251,0.874559 0.07216,1.197615 0.61563,1.595333 0.475972,0.348312 0.82166,0.491603 1.346265,0.558021 0.228899,0.02899 0.528839,0.08763 0.666529,0.130356 0.223789,0.06945 0.250352,0.10816 0.250352,0.364855 0,0.300219 -0.11882,0.497367 -0.628063,1.042057 -0.154774,0.165541 -0.411475,0.546805 -0.570432,0.847213 -0.158962,0.300416 -0.416896,0.736855 -0.573206,0.969876 -0.554517,0.826652 -1.353597,2.936396 -1.415034,3.736014 -0.03463,0.450565 -0.03049,0.479698 0.0251,0.177205 0.0818,-0.445175 0.127921,-0.523835 0.30718,-0.523835 0.229301,0 0.365981,0.307104 0.586298,1.317333 0.114548,0.525294 0.447043,1.960342 0.738847,3.188989 0.291803,1.228649 0.582362,2.459219 0.64569,2.73461 0.06332,0.275383 0.182439,1.162378 0.264712,1.971092 0.154518,1.51914 0.273695,1.993437 0.656299,2.612261 0.104763,0.169472 0.245404,0.42945 0.312505,0.577734 0.62109,1.37255 1.00643,1.830434 2.647332,3.145697 0.452302,0.362535 1.349709,1.590646 1.671924,2.288045 0.5994,1.297331 0.680829,2.304913 0.619142,7.660821 -0.06065,5.265795 -0.06251,10.590824 -0.0038,11.208744 0.05315,0.56053 0.164943,0.9563 0.320435,1.1344 0.170861,0.19573 0.222286,0.11784 0.277056,-0.41967 z M 46.228188,71.232585 c 0.04475,-0.190643 0.114356,-1.178579 0.154646,-2.19539 0.04943,-1.246895 0.125464,-2.13713 0.233524,-2.73461 0.192288,-1.062989 0.396312,-2.481136 0.361899,-2.515547 -0.04144,-0.04147 -0.492129,2.022625 -0.700637,3.208829 -0.207349,1.179606 -0.351563,2.914386 -0.349002,4.198207 0.0014,0.702246 0.01111,0.753288 0.109848,0.57773 0.05958,-0.105918 0.144926,-0.348566 0.189703,-0.539219 z m 4.536455,-41.523478 c 0.183486,-0.0423 0.762638,-0.278572 1.287004,-0.525017 l 0.95339,-0.448083 -0.300271,-0.224154 c -0.454051,-0.338951 -0.590312,-0.741101 -0.336948,-0.994467 0.10502,-0.104999 0.275622,-0.12335 1.002548,-0.107733 0.873765,0.0188 0.876598,0.01816 1.112822,-0.206345 0.222296,-0.211343 0.234962,-0.253507 0.206451,-0.687338 -0.02519,-0.383097 -0.08801,-0.554456 -0.367267,-1.001406 -0.185301,-0.296571 -0.476542,-0.799197 -0.647215,-1.116951 -0.333558,-0.621014 -0.337954,-0.659074 -0.261501,-2.263475 0.01987,-0.41697 0.0045,-0.466002 -0.191155,-0.612708 -0.495368,-0.371311 -1.709902,-0.09639 -3.831395,0.867287 -0.487224,0.221318 -1.062203,0.465406 -1.277733,0.542415 -1.20787,0.431591 -2.081036,1.240186 -2.020239,1.870821 0.02051,0.213939 0.08304,0.281984 0.428236,0.466978 0.531146,0.284642 0.726119,0.556683 1.091135,1.522424 0.166951,0.44168 0.479426,1.174047 0.69442,1.627479 0.214996,0.453432 0.390899,0.854694 0.390899,0.891688 0,0.156078 0.368192,0.393603 0.654766,0.422407 0.599946,0.06031 1.08254,0.05215 1.412046,-0.02384 z"
       id="path76"
       sodipodi:nodetypes="ssssssssssssssssssssssssssssssssssssssssssssssssssssssscssssssssssssssssssssssscscsssssssssssssssssssssssssssssssssssssssssssssscsssssscssssssssssssssscssssssssssccsscsscsssssssssssssssssscsssssssssssssssssssssssssssssscsssscssssssscssscsssssss" />
    <g
       aria-label="brauð toastbar"
       id="text42"
       style="font-size:42.5991px;line-height:1.25;font-family:'Xanh Mono';-inkscape-font-specification:'Xanh Mono';fill:#000000;stroke-width:0.443743">
      <path
         d="M 94.729266,71.382751 V 42.074572 h -4.345108 v -1.022378 l 4.345108,-0.553789 1.87436,-1.064977 h 1.022379 v 12.140743 h 0.127797 q 0.340793,-0.809383 1.064977,-1.618766 0.724185,-0.851982 1.789161,-1.40577 1.06498,-0.596388 2.42815,-0.596388 2.12996,0 3.57832,1.44837 1.44837,1.40577 2.17256,3.919117 0.76678,2.513347 0.76678,5.793477 0,3.578324 -0.89458,6.475063 -0.89458,2.85414 -2.59854,4.558104 -1.70397,1.661364 -4.17472,1.661364 -1.53356,0 -2.64114,-0.638986 -1.107576,-0.638986 -1.789162,-1.576167 -0.638986,-0.979779 -0.894581,-1.831761 h -0.425991 v 3.620923 z m 7.156644,-0.93718 q 2.00216,0 3.19494,-1.448369 1.19277,-1.490968 1.19277,-4.387707 V 54.513509 q 0,-2.598545 -1.27797,-3.706122 -1.27797,-1.107577 -2.89674,-1.107577 -1.44837,0 -2.428149,0.766784 -0.93718,0.724185 -1.448369,1.789162 -0.46859,1.064978 -0.596387,2.044757 v 10.308982 q 0,3.194932 1.235374,4.515504 1.235371,1.320572 3.024531,1.320572 z"
         style="font-size:42.5991px;fill:#000000;stroke-width:0.443743"
         id="path1604" />
      <path
         d="m 126.9767,69.934382 v 1.448369 h -14.95228 v -1.448369 h 5.11189 v -19.33999 h -4.34511 v -1.022379 l 4.34511,-0.553788 1.87436,-1.064978 h 1.02238 v 7.497442 h 0.1278 l 0.21299,-0.638987 q 0.97978,-2.939338 2.85414,-4.898896 1.87436,-1.959559 4.47291,-1.959559 1.61876,0 2.76894,0.724185 1.15017,0.724185 1.15017,2.087356 0,0.809383 -0.42599,1.320572 -0.42599,0.511189 -1.32057,0.511189 -1.06498,0 -1.57617,-0.681585 -0.51119,-0.681586 -0.85198,-1.277973 l -0.63899,-1.235374 q -1.53356,0 -2.68374,1.107576 -1.15017,1.064978 -2.00216,2.85414 -0.85198,1.746563 -1.49096,3.79132 l -0.59639,1.916959 v 10.86277 z"
         style="font-size:42.5991px;fill:#000000;stroke-width:0.443743"
         id="path1606" />
      <path
         d="m 140.94912,71.808742 q -2.34295,0 -3.70612,-1.40577 -1.32057,-1.448369 -1.32057,-3.493126 0,-1.916959 0.93718,-3.152333 0.97978,-1.277973 2.42815,-2.129955 1.44837,-0.851982 2.85414,-1.490968 l 4.34511,-2.002158 v -4.132113 q 0,-2.087355 -1.32058,-3.28013 -1.32057,-1.192775 -3.32273,-1.192775 -1.83176,0 -3.02453,0.894581 -1.19278,0.894581 -1.66137,1.746563 0.97978,1.022379 1.44837,1.618766 0.51119,0.596387 0.51119,1.40577 0,0.724185 -0.51119,1.363171 -0.46859,0.638987 -1.44837,0.638987 -0.93718,0 -1.49096,-0.638987 -0.51119,-0.681585 -0.51119,-1.661365 0,-0.979779 0.46859,-2.129954 0.51119,-1.192775 1.49096,-2.300352 1.02238,-1.107576 2.55595,-1.789162 1.53357,-0.724185 3.62092,-0.724185 2.25776,0 3.57833,0.894582 1.36317,0.894581 1.91696,2.300351 0.59638,1.363171 0.59638,2.854139 v 13.802108 q 0,1.789162 1.23538,1.789162 0.80938,0 1.27797,-0.638986 0.46859,-0.681586 0.63899,-1.320572 l 0.76678,0.255594 q -0.1278,0.851982 -0.59639,1.789163 -0.46859,0.894581 -1.27797,1.533567 -0.76678,0.596387 -1.91696,0.596387 -1.27797,0 -2.17255,-0.851982 -0.85198,-0.851981 -0.85198,-2.641144 -0.3408,0.766784 -1.10758,1.576167 -0.76678,0.809383 -1.87436,1.363171 -1.10758,0.553788 -2.55595,0.553788 z m -2.42815,-5.878675 q 0,1.661365 1.02238,2.854139 1.02238,1.150176 2.72635,1.150176 1.10757,0 1.95955,-0.46859 0.89459,-0.511189 1.44837,-1.192775 0.59639,-0.681585 0.80939,-1.320572 V 59.15681 l -4.04692,2.002158 q -0.97978,0.46859 -1.87436,1.064977 -0.89458,0.553789 -1.49097,1.405771 -0.55379,0.851982 -0.55379,2.300351 z"
         style="font-size:42.5991px;fill:#000000;stroke-width:0.443743"
         id="path1608" />
      <path
         d="m 170.55541,47.953247 h 1.02238 v 21.214351 h 3.02454 v 1.022379 l -3.02454,0.553788 -1.87436,1.064977 h -1.02238 v -4.046914 h -0.12779 q -0.2982,0.851982 -1.02238,1.831761 -0.68159,0.937181 -1.74657,1.576167 -1.06497,0.638986 -2.47074,0.638986 -2.04476,0 -3.40793,-1.320572 -1.32057,-1.320572 -1.32057,-4.174711 V 50.594392 h -4.34511 v -1.022379 l 4.34511,-0.553788 1.87436,-1.064978 h 1.02237 v 18.275014 q 0,3.620923 2.93934,3.620923 1.23538,0 2.08736,-0.638987 0.89458,-0.638986 1.44837,-1.533567 0.55379,-0.93718 0.72418,-1.789162 V 50.594392 h -4.34511 v -1.022379 l 4.34511,-0.553788 z"
         style="font-size:42.5991px;fill:#000000;stroke-width:0.443743"
         id="path1610" />
      <path
         d="m 185.72061,71.808742 q -2.25775,0 -4.17471,-1.235373 -1.87436,-1.235374 -2.98194,-3.663523 -1.10757,-2.428148 -1.10757,-5.963874 0,-3.109734 0.93718,-5.580481 0.93718,-2.513347 2.72634,-4.004316 1.78916,-1.490968 4.34511,-1.490968 2.12995,0 3.49312,1.022378 1.40577,0.979779 2.12996,2.428149 0.76678,1.448369 0.93718,2.81154 h 0.34079 v -0.383392 q 0,-3.407927 -1.19277,-6.176869 -1.15018,-2.768941 -2.98194,-4.813698 l -6.30467,2.002158 v -1.405771 l 5.19709,-1.661364 q -1.36317,-1.235374 -2.93933,-2.044757 -1.53357,-0.851982 -3.10974,-1.277973 l 0.2556,-0.93718 q 1.83176,0.340793 3.79132,1.235374 2.00215,0.894581 3.83391,2.470747 l 5.32489,-1.703964 v 1.405771 l -4.21731,1.320572 q 2.25775,2.300351 3.74872,5.793477 1.49097,3.450527 1.49097,8.179027 0,3.748721 -0.85198,6.389865 -0.85198,2.598545 -2.25775,4.21731 -1.36318,1.576167 -3.06714,2.342951 -1.70396,0.724184 -3.36533,0.724184 z m -0.0426,-1.490968 q 2.42815,0 3.91912,-1.576167 1.49097,-1.618765 1.49097,-4.600702 v -6.60286 q 0,-3.024536 -1.57617,-4.643302 -1.53357,-1.661365 -4.00431,-1.661365 -2.30036,0 -3.74872,1.661365 -1.40577,1.618766 -1.40577,4.643302 v 6.60286 q 0,2.981937 1.44836,4.600702 1.44837,1.576167 3.87652,1.576167 z"
         style="font-size:42.5991px;fill:#000000;stroke-width:0.443743"
         id="path1612" />
      <path
         d="m 230.96069,71.808742 q -3.10974,0 -5.0693,-1.916959 -1.91696,-1.959558 -1.91696,-5.750878 V 49.74241 h -4.85629 v -1.363172 h 4.85629 l 1.91696,-4.558103 h 0.97978 v 4.558103 h 11.11837 v 1.363172 h -11.11837 v 14.185499 q 0,2.939338 1.19278,4.558104 1.19277,1.576166 3.53572,1.576166 1.87436,0 2.98194,-0.894581 1.15018,-0.894581 1.61877,-2.34295 0.51118,-1.490968 0.51118,-3.194932 v -1.107577 h 1.27798 v 1.107577 q 0,1.192774 -0.2982,2.641144 -0.29819,1.40577 -1.06497,2.683743 -0.72419,1.235374 -2.12996,2.044757 -1.36317,0.809382 -3.53572,0.809382 z"
         style="font-size:42.5991px;fill:#000000;stroke-width:0.443743"
         id="path1614" />
      <path
         d="m 250.258,71.808742 q -2.12996,0 -3.70612,-0.979779 -1.57617,-1.022378 -2.64115,-2.726342 -1.02238,-1.746563 -1.53357,-3.876518 -0.51118,-2.129955 -0.51118,-4.345108 0,-2.257752 0.51118,-4.345108 0.51119,-2.129955 1.53357,-3.833919 1.06498,-1.746563 2.64115,-2.726342 1.57616,-1.022379 3.70612,-1.022379 2.12995,0 3.70612,1.022379 1.57617,0.979779 2.59854,2.726342 1.06498,1.703964 1.57617,3.833919 0.51119,2.087356 0.51119,4.345108 0,2.215153 -0.51119,4.345108 -0.51119,2.129955 -1.57617,3.876518 -1.02237,1.703964 -2.59854,2.726342 -1.57617,0.979779 -3.70612,0.979779 z m 0,-1.363171 q 2.68374,0 4.04691,-2.215153 1.36317,-2.257752 1.36317,-6.219468 v -4.25991 q 0,-3.961716 -1.36317,-6.176869 -1.36317,-2.257752 -4.04691,-2.257752 -2.68375,0 -4.04692,2.257752 -1.36317,2.215153 -1.36317,6.176869 v 4.25991 q 0,3.961716 1.36317,6.219468 1.36317,2.215153 4.04692,2.215153 z"
         style="font-size:42.5991px;fill:#000000;stroke-width:0.443743"
         id="path1616" />
      <path
         d="m 268.74593,71.808742 q -2.34295,0 -3.70613,-1.40577 -1.32057,-1.448369 -1.32057,-3.493126 0,-1.916959 0.93718,-3.152333 0.97978,-1.277973 2.42815,-2.129955 1.44837,-0.851982 2.85414,-1.490968 l 4.34511,-2.002158 v -4.132113 q 0,-2.087355 -1.32057,-3.28013 -1.32058,-1.192775 -3.32273,-1.192775 -1.83176,0 -3.02454,0.894581 -1.19277,0.894581 -1.66136,1.746563 0.97978,1.022379 1.44837,1.618766 0.51118,0.596387 0.51118,1.40577 0,0.724185 -0.51118,1.363171 -0.46859,0.638987 -1.44837,0.638987 -0.93718,0 -1.49097,-0.638987 -0.51119,-0.681585 -0.51119,-1.661365 0,-0.979779 0.46859,-2.129954 0.51119,-1.192775 1.49097,-2.300352 1.02238,-1.107576 2.55594,-1.789162 1.53357,-0.724185 3.62093,-0.724185 2.25775,0 3.57832,0.894582 1.36317,0.894581 1.91696,2.300351 0.59639,1.363171 0.59639,2.854139 v 13.802108 q 0,1.789162 1.23537,1.789162 0.80938,0 1.27797,-0.638986 0.46859,-0.681586 0.63899,-1.320572 l 0.76678,0.255594 q -0.12779,0.851982 -0.59638,1.789163 -0.46859,0.894581 -1.27798,1.533567 -0.76678,0.596387 -1.91696,0.596387 -1.27797,0 -2.17255,-0.851982 -0.85198,-0.851981 -0.85198,-2.641144 -0.34079,0.766784 -1.10758,1.576167 -0.76678,0.809383 -1.87436,1.363171 -1.10757,0.553788 -2.55594,0.553788 z m -2.42815,-5.878675 q 0,1.661365 1.02238,2.854139 1.02237,1.150176 2.72634,1.150176 1.10757,0 1.95956,-0.46859 0.89458,-0.511189 1.44837,-1.192775 0.59638,-0.681585 0.80938,-1.320572 V 59.15681 l -4.04692,2.002158 q -0.97977,0.46859 -1.87436,1.064977 -0.89458,0.553789 -1.49096,1.405771 -0.55379,0.851982 -0.55379,2.300351 z"
         style="font-size:42.5991px;fill:#000000;stroke-width:0.443743"
         id="path1618" />
      <path
         d="m 294.77389,71.808742 q -2.12995,0 -3.53572,-0.979779 -1.36317,-0.979779 -2.08736,-2.385549 -0.72418,-1.44837 -0.89458,-2.726343 h -0.34079 v 5.66568 h -1.36317 v -9.968189 h 2.21515 v 0.51119 q 0,0.425991 0.0426,1.40577 0.0852,0.979779 0.38339,2.172554 0.2982,1.192775 0.89458,2.300351 0.63899,1.107577 1.74657,1.831761 1.10757,0.724185 2.81154,0.724185 1.91696,0 2.89674,-0.979779 1.02237,-0.979779 1.02237,-2.555946 0,-1.533568 -0.80938,-2.641144 -0.80938,-1.150176 -2.08735,-2.002158 -1.27798,-0.894581 -2.72635,-1.746563 -1.40577,-0.851982 -2.68374,-1.789162 -1.27797,-0.979779 -2.08736,-2.215153 -0.80938,-1.277973 -0.80938,-3.024536 0,-2.385549 1.57617,-3.919117 1.57617,-1.533568 4.25991,-1.533568 1.95956,0 3.10973,0.766784 1.15018,0.724185 1.70397,1.746563 0.59638,0.97978 0.80938,1.789162 h 0.34079 v -3.876518 h 1.36317 v 8.264225 h -1.78916 v -0.127797 q 0,-1.107576 -0.25559,-2.34295 -0.2556,-1.235374 -0.89458,-2.342951 -0.59639,-1.107576 -1.66137,-1.789162 -1.02238,-0.681585 -2.59854,-0.681585 -1.95956,0 -2.68375,1.022378 -0.72418,1.022378 -0.72418,2.129955 0,1.363171 0.80938,2.428149 0.80938,1.022378 2.08736,1.916959 1.27797,0.851982 2.68374,1.703964 1.44837,0.851982 2.72634,1.87436 1.27797,0.979779 2.08736,2.300352 0.80938,1.277972 0.80938,3.067135 0,1.703964 -0.85198,3.067135 -0.80938,1.363171 -2.25775,2.172554 -1.40577,0.766783 -3.23754,0.766783 z"
         style="font-size:42.5991px;fill:#000000;stroke-width:0.443743"
         id="path1620" />
      <path
         d="m 316.15856,71.808742 q -3.10973,0 -5.06929,-1.916959 -1.91696,-1.959558 -1.91696,-5.750878 V 49.74241 h -4.8563 v -1.363172 h 4.8563 l 1.91696,-4.558103 h 0.97978 v 4.558103 h 11.11836 v 1.363172 h -11.11836 v 14.185499 q 0,2.939338 1.19277,4.558104 1.19278,1.576166 3.53573,1.576166 1.87436,0 2.98194,-0.894581 1.15017,-0.894581 1.61876,-2.34295 0.51119,-1.490968 0.51119,-3.194932 v -1.107577 h 1.27797 v 1.107577 q 0,1.192774 -0.29819,2.641144 -0.29819,1.40577 -1.06498,2.683743 -0.72418,1.235374 -2.12995,2.044757 -1.36317,0.809382 -3.53573,0.809382 z"
         style="font-size:42.5991px;fill:#000000;stroke-width:0.443743"
         id="path1622" />
      <path
         d="M 329.02341,71.382751 V 42.074572 h -4.34511 v -1.022378 l 4.34511,-0.553789 1.87436,-1.064977 h 1.02238 v 12.140743 h 0.1278 q 0.34079,-0.809383 1.06497,-1.618766 0.72419,-0.851982 1.78917,-1.40577 1.06497,-0.596388 2.42814,-0.596388 2.12996,0 3.57833,1.44837 1.44837,1.40577 2.17255,3.919117 0.76679,2.513347 0.76679,5.793477 0,3.578324 -0.89459,6.475063 -0.89458,2.85414 -2.59854,4.558104 -1.70396,1.661364 -4.17471,1.661364 -1.53357,0 -2.64115,-0.638986 -1.10757,-0.638986 -1.78916,-1.576167 -0.63898,-0.979779 -0.89458,-1.831761 h -0.42599 v 3.620923 z m 7.15665,-0.93718 q 2.00216,0 3.19493,-1.448369 1.19278,-1.490968 1.19278,-4.387707 V 54.513509 q 0,-2.598545 -1.27798,-3.706122 -1.27797,-1.107577 -2.89674,-1.107577 -1.44837,0 -2.42814,0.766784 -0.93719,0.724185 -1.44837,1.789162 -0.46859,1.064978 -0.59639,2.044757 v 10.308982 q 0,3.194932 1.23537,4.515504 1.23538,1.320572 3.02454,1.320572 z"
         style="font-size:42.5991px;fill:#000000;stroke-width:0.443743"
         id="path1624" />
      <path
         d="m 353.94379,71.808742 q -2.34295,0 -3.70612,-1.40577 -1.32058,-1.448369 -1.32058,-3.493126 0,-1.916959 0.93718,-3.152333 0.97978,-1.277973 2.42815,-2.129955 1.44837,-0.851982 2.85414,-1.490968 l 4.34511,-2.002158 v -4.132113 q 0,-2.087355 -1.32057,-3.28013 -1.32057,-1.192775 -3.32273,-1.192775 -1.83176,0 -3.02454,0.894581 -1.19277,0.894581 -1.66136,1.746563 0.97978,1.022379 1.44837,1.618766 0.51119,0.596387 0.51119,1.40577 0,0.724185 -0.51119,1.363171 -0.46859,0.638987 -1.44837,0.638987 -0.93718,0 -1.49097,-0.638987 -0.51119,-0.681585 -0.51119,-1.661365 0,-0.979779 0.46859,-2.129954 0.51119,-1.192775 1.49097,-2.300352 1.02238,-1.107576 2.55594,-1.789162 1.53357,-0.724185 3.62093,-0.724185 2.25775,0 3.57832,0.894582 1.36317,0.894581 1.91696,2.300351 0.59639,1.363171 0.59639,2.854139 v 13.802108 q 0,1.789162 1.23537,1.789162 0.80938,0 1.27797,-0.638986 0.4686,-0.681586 0.63899,-1.320572 l 0.76679,0.255594 q -0.1278,0.851982 -0.59639,1.789163 -0.46859,0.894581 -1.27798,1.533567 -0.76678,0.596387 -1.91695,0.596387 -1.27798,0 -2.17256,-0.851982 -0.85198,-0.851981 -0.85198,-2.641144 -0.34079,0.766784 -1.10758,1.576167 -0.76678,0.809383 -1.87436,1.363171 -1.10757,0.553788 -2.55594,0.553788 z m -2.42815,-5.878675 q 0,1.661365 1.02238,2.854139 1.02237,1.150176 2.72634,1.150176 1.10758,0 1.95956,-0.46859 0.89458,-0.511189 1.44837,-1.192775 0.59638,-0.681585 0.80938,-1.320572 V 59.15681 l -4.04691,2.002158 q -0.97978,0.46859 -1.87437,1.064977 -0.89458,0.553789 -1.49096,1.405771 -0.55379,0.851982 -0.55379,2.300351 z"
         style="font-size:42.5991px;fill:#000000;stroke-width:0.443743"
         id="path1626" />
      <path
         d="m 382.5703,69.934382 v 1.448369 h -14.95228 v -1.448369 h 5.11189 v -19.33999 h -4.34511 v -1.022379 l 4.34511,-0.553788 1.87436,-1.064978 h 1.02238 v 7.497442 h 0.12779 l 0.213,-0.638987 q 0.97978,-2.939338 2.85414,-4.898896 1.87436,-1.959559 4.47291,-1.959559 1.61876,0 2.76894,0.724185 1.15017,0.724185 1.15017,2.087356 0,0.809383 -0.42599,1.320572 -0.42599,0.511189 -1.32057,0.511189 -1.06498,0 -1.57617,-0.681585 -0.51119,-0.681586 -0.85198,-1.277973 l -0.63899,-1.235374 q -1.53356,0 -2.68374,1.107576 -1.15017,1.064978 -2.00216,2.85414 -0.85198,1.746563 -1.49097,3.79132 l -0.59638,1.916959 v 10.86277 z"
         style="font-size:42.5991px;fill:#000000;stroke-width:0.443743"
         id="path1628" />
    </g>
  </g>
</svg>
